<svg width="32" height="32" viewBox="0 0 32 32" fill="none" xmlns="http://www.w3.org/2000/svg">
<path d="M22 15H9.96875C9.4375 15 9 15.4688 9 16C9 16.5625 9.4375 17 9.96875 17H21.9688C22.5312 17 23 16.5625 23 16C23 15.4688 22.5312 15 22 15ZM22 20H9.96875C9.4375 20 9 20.4688 9 21C9 21.5 9.4375 22 9.96875 22H21.9688C22.5312 22 23 21.5625 23 21C23 20.4688 22.5312 20 22 20ZM22 10H9.96875C9.4375 10 9 10.4688 9 11C9 11.5 9.4375 12 9.96875 12H21.9688C22.5312 12 23 11.5625 23 11C23 10.4688 22.5312 10 22 10Z" fill="white"/>
</svg>
