<svg width="32" height="32" viewBox="0 0 32 32" fill="none" xmlns="http://www.w3.org/2000/svg">
<path d="M7.77294 21V9.56H11.4529C12.7756 9.56 13.8103 9.85867 14.5569 10.456C15.3143 11.0427 15.6929 11.9227 15.6929 13.096V13.16C15.6929 14.3227 15.3143 15.1973 14.5569 15.784C13.7996 16.36 12.7809 16.648 11.5009 16.648H9.90094V21H7.77294ZM9.90094 15.112H11.4529C12.1569 15.112 12.6903 14.9467 13.0529 14.616C13.4263 14.2747 13.6129 13.7893 13.6129 13.16V13.096C13.6129 11.8373 12.8929 11.208 11.4529 11.208H9.90094V15.112ZM19.8109 21V11.24H16.6269V9.56H25.1389V11.24H21.9549V21H19.8109Z" fill="white"/>
</svg>
