<svg width="32" height="32" viewBox="0 0 32 32" fill="none" xmlns="http://www.w3.org/2000/svg">
<path d="M23.625 21.875L19.875 18.125C20.7188 16.875 21.1562 15.3125 20.9375 13.625C20.5312 10.75 18.1875 8.4375 15.3438 8.0625C11.0938 7.53125 7.5 11.125 8.03125 15.375C8.40625 18.2188 10.7188 20.5625 13.5938 20.9688C15.2812 21.1875 16.8438 20.75 18.125 19.9062L21.8438 23.6562C22.3438 24.125 23.125 24.125 23.625 23.6562C24.0938 23.1562 24.0938 22.375 23.625 21.875ZM10.4688 14.5C10.4688 12.3125 12.25 10.5 14.4688 10.5C16.6562 10.5 18.4688 12.3125 18.4688 14.5C18.4688 16.7188 16.6562 18.5 14.4688 18.5C12.25 18.5 10.4688 16.7188 10.4688 14.5Z" fill="white"/>
</svg>
